# File created by Blade
# Date/Time:  Tue Jan 27 17:09:01 2015
#---------------------------------------------------------
:version 1.10
:name HOM
:units
  mass 1.0
  length 1.000000
  angle deg
:documentation
     Acclaim Skeleton File
:root
   axis xyz
   order TX TY TZ RX RY RZ
   position 0.000000 0.000000 0.000000
   orientation 0 0 0
:bonedata
   begin
      id 1
      name Spine_dum
      direction 0.000000 1.000000 0.000000
      length 7.539951
      axis 0.0 0.0 0.0 xyz
   end
   begin
      id 2
      name LeftUpLeg_dum
      direction 1.000000 0.000000 0.000000
      length 3.345476
      axis 0.0 0.0 0.0 xyz
   end
   begin
      id 3
      name RightUpLeg_dum
      direction -1.000000 0.000000 0.000000
      length 3.345476
      axis 0.0 0.0 0.0 xyz
   end
   begin
      id 4
      name Spine
      direction 0.000000 1.000000 0.000000
      length 0.000000
      axis 0.0 0.0 0.0 xyz
      dof rx ry rz
   end
   begin
      id 5
      name Spine_dum1
      direction 0.000000 1.000000 0.000000
      length 15.093809
      axis 0.0 0.0 0.0 xyz
   end
   begin
      id 6
      name Spine_dum2
      direction 0.000000 1.000000 0.000000
      length 9.738928
      axis 0.0 0.0 0.0 xyz
   end
   begin
      id 7
      name Spine_dum3
      direction 0.000000 1.000000 0.000000
      length 9.738928
      axis 0.0 0.0 0.0 xyz
   end
   begin
      id 8
      name Head
      direction 0.000000 1.000000 0.000000
      length 4.527550
      axis 0.0 0.0 0.0 xyz
      dof rx ry rz
   end
   begin
      id 9
      name LeftShoulder
      direction 1.000000 0.000000 0.000000
      length 7.084015
      axis 0.0 0.0 -90.0 xyz
      dof rx ry rz
   end
   begin
      id 10
      name LeftArm
      direction 1.000000 0.000000 0.000000
      length 10.259319
      axis 0.0 0.0 -90.0 xyz
      dof rx ry rz
   end
   begin
      id 11
      name LeftForeArm
      direction 1.000000 0.000000 0.000000
      length 9.896984
      axis 0.0 0.0 -90.0 xyz
      dof ry rz rx
   end
   begin
      id 12
      name LeftHand
      direction 0.000000 0.000000 0.000000
      length 0.000000
      axis 0.0 0.0 -90.0 xyz
      dof rx ry rz
   end
   begin
      id 13
      name LeftHand_dum1
      direction 0.000000 0.000000 0.000000
      length 0.000000
      axis 0.0 0.0 -90.0 xyz
   end
   begin
      id 14
      name LeftHand_dum2
      direction 1.000000 0.000000 0.000000
      length 3.937000
      axis 0.0 0.0 -90.0 xyz
   end
   begin
      id 15
      name LeftHandThumb1
      direction 0.000000 0.000000 1.000000
      length 3.937000
      axis 0.0 0.0 -90.0 xyz
      dof rx rz ry
   end
   begin
      id 16
      name RightShoulder
      direction -1.000000 0.000000 0.000000
      length 7.084015
      axis 0.0 0.0 90.0 xyz
      dof rx ry rz
   end
   begin
      id 17
      name RightArm
      direction -1.000000 0.000000 0.000000
      length 10.259319
      axis 0.0 0.0 90.0 xyz
      dof rx ry rz
   end
   begin
      id 18
      name RightForeArm
      direction -1.000000 0.000000 0.000000
      length 9.896984
      axis 0.0 0.0 90.0 xyz
      dof ry rz rx
   end
   begin
      id 19
      name RightHand
      direction 0.000000 0.000000 0.000000
      length 0.000000
      axis 0.0 0.0 90.0 xyz
      dof rx ry rz
   end
   begin
      id 20
      name RightHand_dum1
      direction 0.000000 0.000000 0.000000
      length 0.000000
      axis 0.0 0.0 90.0 xyz
   end
   begin
      id 21
      name RightHand_dum2
      direction -1.000000 0.000000 0.000000
      length 3.937000
      axis 0.0 0.0 90.0 xyz
   end
   begin
      id 22
      name RightHandThumb1
      direction 0.000000 0.000000 1.000000
      length 3.937000
      axis 0.0 0.0 90.0 xyz
      dof rx rz ry
   end
   begin
      id 23
      name LeftUpLeg
      direction 0.000000 -1.000000 0.000000
      length 19.114733
      axis 0.0 0.0 0.0 xyz
      dof rx ry rz
   end
   begin
      id 24
      name LeftLeg
      direction 0.000000 -1.000000 0.000000
      length 16.045604
      axis 0.0 0.0 0.0 xyz
      dof rx ry rz
   end
   begin
      id 25
      name LeftFoot
      direction 0.000000 -0.258819 0.965926
      length 5.543155
      axis 15.0 0.0 0.0 xyz
      dof rx ry rz
   end
   begin
      id 26
      name LeftToeBase
      direction 0.000000 0.000000 1.000000
      length 2.952750
      axis 0.0 0.0 0.0 xyz
      dof rx ry rz
   end
   begin
      id 27
      name RightUpLeg
      direction 0.000000 -1.000000 0.000000
      length 19.114733
      axis 0.0 0.0 0.0 xyz
      dof rx ry rz
   end
   begin
      id 28
      name RightLeg
      direction 0.000000 -1.000000 0.000000
      length 16.045604
      axis 0.0 0.0 0.0 xyz
      dof rx ry rz
   end
   begin
      id 29
      name RightFoot
      direction 0.000000 -0.258819 0.965926
      length 5.543155
      axis 15.0 0.0 0.0 xyz
      dof rx ry rz
   end
   begin
      id 30
      name RightToeBase
      direction 0.000000 0.000000 1.000000
      length 2.952750
      axis 0.0 0.0 0.0 xyz
      dof rx ry rz
   end
:hierarchy
   begin
      root Spine_dum LeftUpLeg_dum RightUpLeg_dum
      Spine_dum Spine
      LeftUpLeg_dum LeftUpLeg
      RightUpLeg_dum RightUpLeg
      Spine Spine_dum1 Spine_dum2 Spine_dum3
      Spine_dum1 Head
      Spine_dum2 LeftShoulder
      Spine_dum3 RightShoulder
      LeftShoulder LeftArm
      LeftArm LeftForeArm
      LeftForeArm LeftHand
      LeftHand LeftHand_dum1 LeftHand_dum2
      LeftHand_dum1 LeftHandThumb1
      RightShoulder RightArm
      RightArm RightForeArm
      RightForeArm RightHand
      RightHand RightHand_dum1 RightHand_dum2
      RightHand_dum1 RightHandThumb1
      LeftUpLeg LeftLeg
      LeftLeg LeftFoot
      LeftFoot LeftToeBase
      RightUpLeg RightLeg
      RightLeg RightFoot
      RightFoot RightToeBase
   end

# File created by Blade
# Date/Time:  Tue Jan 27 17:08:52 2015
# Frame Rate: 120.000 fps
#------------------------------------------------------
:FULLY-SPECIFIED
:DEGREES
1
root -0.851285 37.039262 -0.558784 10.817489 -0.493764 -0.971745
Spine -8.414340 5.895606 0.744827
Head 0.542599 -0.046755 0.960136
LeftShoulder -9.570326 -10.194019 19.519319
LeftArm 2.512023 -14.006619 -21.145125
LeftForeArm 35.105304 -0.000000 5.498673
LeftHand -11.366586 -0.000000 -11.742778
LeftHandThumb1 -26.253704 0.000000 33.147579
RightShoulder -7.876277 -6.836854 -21.249272
RightArm 1.389607 35.192418 25.336499
RightForeArm 169.475977 -0.000000 13.670050
RightHand 5.408587 -0.000000 -4.442647
RightHandThumb1 -24.326973 -0.000000 -32.862282
LeftUpLeg -8.232174 13.436170 5.481493
LeftLeg 7.033154 -0.000000 -0.000000
LeftFoot -15.311673 3.239386 -20.802825
LeftToeBase 15.034277 -0.000000 -0.000000
RightUpLeg -9.550078 -7.820031 0.067880
RightLeg 9.635233 -0.000000 -0.000000
RightFoot -14.029959 -1.677386 7.618895
RightToeBase 5.926447 -0.000000 -0.000000
2
root -0.853708 37.038785 -0.560076 10.817892 -0.479850 -0.968999
Spine -8.411016 5.893640 0.744925
Head 0.528657 -0.041587 0.964727
LeftShoulder -9.571096 -10.215842 19.525260
LeftArm 2.494745 -14.065186 -21.168356
LeftForeArm 35.119067 -0.000000 5.534914
LeftHand -11.265579 0.000000 -11.735214
LeftHandThumb1 -26.253704 0.000000 33.147579
RightShoulder -7.838626 -6.830326 -21.264080
RightArm 1.327606 35.162572 25.335210
RightForeArm 169.534168 -0.000000 13.697956
RightHand 5.458559 -0.000000 -4.469419
RightHandThumb1 -24.326973 -0.000000 -32.862282
LeftUpLeg -8.238099 13.429210 5.483036
LeftLeg 7.034494 -0.000000 -0.000000
LeftFoot -15.302195 3.239833 -20.813914
LeftToeBase 15.015950 -0.000000 -0.000000
RightUpLeg -9.551555 -7.824436 0.072005
RightLeg 9.634568 -0.000000 -0.000000
RightFoot -14.034097 -1.685637 7.620042
RightToeBase 5.885219 -0.000000 -0.000000
3
root -0.855527 37.038801 -0.561856 10.818663 -0.469627 -0.969737
Spine -8.407176 5.896193 0.755301
Head 0.523845 -0.028252 0.952798
LeftShoulder -9.578153 -10.226172 19.518164
LeftArm 2.498405 -14.113037 -21.186166
LeftForeArm 35.087992 0.000000 5.541519
LeftHand -11.246568 -0.000000 -11.747027
LeftHandThumb1 -26.253704 0.000000 33.147579
RightShoulder -7.836892 -6.839549 -21.264044
RightArm 1.341219 35.164658 25.352607
RightForeArm 169.540383 -0.000000 13.713344
RightHand 5.423268 -0.000000 -4.516109
RightHandThumb1 -24.326973 -0.000000 -32.862282
LeftUpLeg -8.244733 13.421559 5.487711
LeftLeg 7.036810 -0.000000 -0.000000
LeftFoot -15.299153 3.225563 -20.836158
LeftToeBase 15.013967 -0.000000 -0.000000
RightUpLeg -9.553481 -7.827316 0.076155
RightLeg 9.635571 -0.000000 -0.000000
RightFoot -14.041246 -1.690776 7.617244
RightToeBase 5.902238 -0.000000 -0.000000
4
root -0.857968 37.038822 -0.563155 10.821158 -0.453784 -0.971663
Spine -8.410533 5.890036 0.764105
Head 0.526302 -0.024535 0.950453
LeftShoulder -9.580989 -10.217901 19.507148
LeftArm 2.500247 -14.154164 -21.195813
LeftForeArm 35.007966 -0.000000 5.567005
LeftHand -11.368965 -0.000000 -11.760792
LeftHandThumb1 -26.253704 0.000000 33.147579
RightShoulder -7.837360 -6.849749 -21.258977
RightArm 1.365209 35.168265 25.372372
RightForeArm 169.551041 -0.000000 13.723532
RightHand 5.458749 -0.000000 -4.603588
RightHandThumb1 -24.326973 -0.000000 -32.862282
LeftUpLeg -8.251560 13.422588 5.493245
LeftLeg 7.033778 -0.000000 -0.000000
LeftFoot -15.289126 3.220140 -20.809406
LeftToeBase 15.013919 -0.000000 -0.000000
RightUpLeg -9.553258 -7.828616 0.082690
RightLeg 9.630053 -0.000000 -0.000000
RightFoot -14.031251 -1.716539 7.644712
RightToeBase 5.865064 -0.000000 -0.000000
5
root -0.860961 37.038660 -0.564899 10.824957 -0.441945 -0.972004
Spine -8.411233 5.892200 0.773406
Head 0.525681 -0.006230 0.942021
LeftShoulder -9.587075 -10.226923 19.505018
LeftArm 2.494164 -14.214853 -21.220145
LeftForeArm 35.020530 0.000000 5.592310
LeftHand -11.353830 -0.000000 -11.901176
LeftHandThumb1 -26.253704 0.000000 33.147579
RightShoulder -7.837774 -6.844492 -21.268659
RightArm 1.365695 35.154381 25.394240
RightForeArm 169.570563 0.000000 13.748997
RightHand 5.458571 0.000000 -4.688542
RightHandThumb1 -24.326973 -0.000000 -32.862282
LeftUpLeg -8.259134 13.410627 5.498641
LeftLeg 7.030085 -0.000000 -0.000000
LeftFoot -15.284503 3.223312 -20.808768
LeftToeBase 15.012969 -0.000000 -0.000000
RightUpLeg -9.557731 -7.834682 0.091148
RightLeg 9.626896 -0.000000 -0.000000
RightFoot -14.043573 -1.709003 7.609835
RightToeBase 5.906529 -0.000000 -0.000000
6
root -0.862634 37.038609 -0.565561 10.821486 -0.437579 -0.967761
Spine -8.401402 5.895043 0.773338
Head 0.527285 0.015910 0.920171
LeftShoulder -9.607791 -10.225427 19.500575
LeftArm 2.498584 -14.258297 -21.241277
LeftForeArm 34.907637 -0.000000 5.631887
LeftHand -11.340299 -0.000000 -11.883503
LeftHandThumb1 -26.253704 0.000000 33.147579
RightShoulder -7.848547 -6.849006 -21.254477
RightArm 1.395617 35.154129 25.410915
RightForeArm 169.570803 -0.000000 13.758255
RightHand 5.408045 -0.000000 -4.742465
RightHandThumb1 -24.326973 -0.000000 -32.862282
LeftUpLeg -8.254266 13.414284 5.497326
LeftLeg 7.022374 -0.000000 -0.000000
LeftFoot -15.279530 3.215625 -20.827918
LeftToeBase 15.044037 -0.000000 -0.000000
RightUpLeg -9.552698 -7.836694 0.089289
RightLeg 9.623333 -0.000000 -0.000000
RightFoot -14.047256 -1.705409 7.616855
RightToeBase 5.922275 -0.000000 -0.000000
7
root -0.864501 37.038359 -0.566386 10.821661 -0.430057 -0.966033
Spine -8.403283 5.900432 0.778815
Head 0.534928 0.021900 0.920287
LeftShoulder -9.615493 -10.209894 19.491371
LeftArm 2.513221 -14.406748 -21.269433
LeftForeArm 34.926588 -0.000000 5.647807
LeftHand -11.309923 -0.000000 -11.883297
LeftHandThumb1 -26.253704 0.000000 33.147579
RightShoulder -7.844399 -6.850120 -21.253069
RightArm 1.393936 35.141321 25.416634
RightForeArm 169.580797 -0.000000 13.775667
RightHand 5.422467 -0.000000 -4.814459
RightHandThumb1 -24.326973 -0.000000 -32.862282
LeftUpLeg -8.251094 13.403170 5.500350
LeftLeg 7.008985 -0.000000 -0.000000
LeftFoot -15.259063 3.215365 -20.826941
LeftToeBase 14.999876 -0.000000 -0.000000
RightUpLeg -9.551644 -7.838371 0.091867
RightLeg 9.619655 -0.000000 -0.000000
RightFoot -14.043987 -1.707312 7.626478
RightToeBase 5.928332 -0.000000 -0.000000
8
root -0.867257 37.038042 -0.567970 10.822323 -0.419640 -0.964497
Spine -8.398496 5.899376 0.787538
Head 0.530462 0.035035 0.914740
LeftShoulder -9.628456 -10.197201 19.477544
LeftArm 2.497685 -14.439141 -21.288173
LeftForeArm 34.818692 -0.000000 5.710160
LeftHand -11.393099 -0.000000 -11.921321
LeftHandThumb1 -26.253704 0.000000 33.147579
RightShoulder -7.884006 -6.846563 -21.247667
RightArm 1.463339 35.129640 25.457500
RightForeArm 169.570387 -0.000000 13.783817
RightHand 5.444034 0.000000 -4.838974
RightHandThumb1 -24.326973 -0.000000 -32.862282
LeftUpLeg -8.253508 13.401146 5.502942
LeftLeg 7.003835 -0.000000 -0.000000
LeftFoot -15.262806 3.210922 -20.824981
LeftToeBase 15.015156 -0.000000 -0.000000
RightUpLeg -9.553696 -7.835002 0.096244
RightLeg 9.619510 -0.000000 -0.000000
RightFoot -14.050125 -1.728866 7.603947
RightToeBase 5.885950 -0.000000 -0.000000
9
root -0.869166 37.037357 -0.568800 10.826242 -0.414521 -0.964331
Spine -8.399153 5.914397 0.799465
Head 0.524141 0.036718 0.898534
LeftShoulder -9.633050 -10.203963 19.464910
LeftArm 2.451101 -14.517741 -21.318814
LeftForeArm 34.729572 -0.000000 5.827188
LeftHand -11.574250 -0.000000 -11.909296
LeftHandThumb1 -26.253704 0.000000 33.147579
RightShoulder -7.858026 -6.848276 -21.264311
RightArm 1.401718 35.132873 25.452553
RightForeArm 169.570805 -0.000000 13.818939
RightHand 5.470354 0.000000 -4.898447
RightHandThumb1 -24.326973 -0.000000 -32.862282
LeftUpLeg -8.243309 13.388744 5.510187
LeftLeg 6.968052 -0.000000 -0.000000
LeftFoot -15.245479 3.197058 -20.861788
LeftToeBase 15.010492 -0.000000 -0.000000
RightUpLeg -9.559616 -7.840833 0.100143
RightLeg 9.624144 -0.000000 -0.000000
RightFoot -14.057269 -1.725471 7.607765
RightToeBase 5.863051 -0.000000 -0.000000
10
root -0.872412 37.036628 -0.570206 10.834583 -0.402222 -0.965037
Spine -8.396762 5.916087 0.812386
Head 0.500070 0.050688 0.885614
LeftShoulder -9.663994 -10.189195 19.488095
LeftArm 2.420577 -14.588235 -21.414818
LeftForeArm 34.482449 -0.000000 5.994447
LeftHand -12.248284 -0.000000 -12.047995
LeftHandThumb1 -26.253704 0.000000 33.147579
RightShoulder -7.881423 -6.849794 -21.270286
RightArm 1.416405 35.177654 25.494234
RightForeArm 169.509147 -0.000000 13.871252
RightHand 5.508527 -0.000000 -4.900950
RightHandThumb1 -24.326973 -0.000000 -32.862282
LeftUpLeg -8.252996 13.366163 5.516293
LeftLeg 6.962250 -0.000000 -0.000000
LeftFoot -15.247873 3.211801 -20.865591
LeftToeBase 15.028676 -0.000000 -0.000000
RightUpLeg -9.568351 -7.848082 0.108879
RightLeg 9.623067 -0.000000 -0.000000
RightFoot -14.073312 -1.728851 7.607530
RightToeBase 5.935635 -0.000000 -0.000000
11
root -0.874985 37.036287 -0.571980 10.840358 -0.400334 -0.965240
Spine -8.396488 5.925626 0.824211
Head 0.488409 0.063945 0.875495
LeftShoulder -9.672917 -10.193333 19.466720
LeftArm 2.363318 -14.666900 -21.440274
LeftForeArm 34.309187 0.000000 6.130280
LeftHand -12.334216 0.000000 -11.926005
LeftHandThumb1 -26.253704 0.000000 33.147579
RightShoulder -7.883544 -6.848236 -21.268545
RightArm 1.413851 35.169723 25.507358
RightForeArm 169.499890 -0.000000 13.904488
RightHand 5.500335 -0.000000 -4.938850
RightHandThumb1 -24.326973 -0.000000 -32.862282
LeftUpLeg -8.257291 13.361578 5.518315
LeftLeg 6.953195 -0.000000 -0.000000
LeftFoot -15.244843 3.219351 -20.856340
LeftToeBase 15.000633 -0.000000 -0.000000
RightUpLeg -9.578859 -7.848291 0.114063
RightLeg 9.628226 -0.000000 -0.000000
RightFoot -14.081169 -1.731102 7.594176
RightToeBase 5.920515 -0.000000 -0.000000
12
root -0.877174 37.035992 -0.572862 10.842059 -0.398573 -0.965618
Spine -8.394292 5.937256 0.835857
Head 0.481326 0.074624 0.875648
LeftShoulder -9.672947 -10.179340 19.432731
LeftArm 2.292007 -14.830162 -21.462648
LeftForeArm 34.127568 -0.000000 6.300969
LeftHand -12.374234 -0.000000 -11.810218
LeftHandThumb1 -26.253704 0.000000 33.147579
RightShoulder -7.887284 -6.841503 -21.259667
RightArm 1.407097 35.166302 25.513400
RightForeArm 169.516432 -0.000000 13.936600
RightHand 5.497479 -0.000000 -4.951715
RightHandThumb1 -24.326973 -0.000000 -32.862282
LeftUpLeg -8.256173 13.360256 5.521967
LeftLeg 6.942666 -0.000000 -0.000000
LeftFoot -15.243223 3.228711 -20.854835
LeftToeBase 15.024395 -0.000000 -0.000000
RightUpLeg -9.586292 -7.861980 0.120128
RightLeg 9.636617 -0.000000 -0.000000
RightFoot -14.075064 -1.716745 7.597308
RightToeBase 5.887669 -0.000000 -0.000000
